<svg xmlns="http://www.w3.org/2000/svg" viewBox="0 0 70 70"><defs><style>.cls-1{fill:#fff;}</style></defs><g id="Layer_1" data-name="Layer 1"><path class="cls-1" d="M14.28,26.39,2.55,14.66S-3.19,8.71,2.55,3,14.24,3,14.24,3L26,14.7s-5.46-1-9.27,2.76A9.81,9.81,0,0,0,14.28,26.39Z"/><path class="cls-1" d="M62.33,63.31s1-6.67-1.53-9.39c-3.8-4.06-5.31-9.43-1.46-17.74A38.78,38.78,0,0,0,62.86,20s.09,13.3-.53,19.26c-1.18,11.51,6.17,10.69,2.34,20A20.07,20.07,0,0,1,62.33,63.31Z"/><path class="cls-1" d="M67.17,55.9l-.77-.77a8.46,8.46,0,0,1-.61,3.07h0a4.39,4.39,0,0,1,1.67,1.36c1.67,2.29.74,5.82-2.09,7.9s-6.48,1.89-8.16-.4-.74-5.83,2.09-7.9A7.55,7.55,0,0,1,61.81,58h0a7.8,7.8,0,0,0-1.93-4.31,12.49,12.49,0,0,1-3.33-8.36l-29-29s-5.68-1.06-9.36,2.61c-3.15,3.15-2.33,8.07-2,9.41L55.47,67.59A8.27,8.27,0,1,0,67.17,55.9Z"/></g></svg>