<svg xmlns="http://www.w3.org/2000/svg" viewBox="0 0 70 70"><defs><style>.cls-1{fill:#fff;}</style></defs><g id="Layer_1" data-name="Layer 1"><rect class="cls-1" x="31.43" y="20.37" width="4.3" height="50.42" rx="2.15" transform="translate(-10.68 10.28) rotate(-15.05)"/><path class="cls-1" d="M26.39,26.5c-.64-.51-1.52-1.25-2.5-2.19a17.67,17.67,0,0,1-2.74-3.08,13,13,0,0,1-1.47-3.11A81,81,0,0,1,17,3.25S17,1,18.14,2.93l3.39,10.23s.24.89.83.74.36-1.06.36-1.06L20.82,2.21S21-.11,22,1.89c.7,1.41,3.39,10.24,3.39,10.24s.24.89.83.73.36-1,.36-1L25,1.1s0-2.24,1.19-.32S31.1,14.41,31.1,14.41a11.48,11.48,0,0,1,.68,4.91,32.75,32.75,0,0,1-1.53,6.14Z"/><path class="cls-1" d="M52.29,15.85c-1.69,6.71-7,10.85-10.53,9.62s-5.31-7.82-2.35-14.08C42.47,4.92,47.6,1,49.94,1.78,52.73,2.83,54,9.24,52.29,15.85Z"/><path class="cls-1" d="M43.41,20.68A2.16,2.16,0,0,0,40.67,22L34.93,38.62l1.89,7.71,7.92-22.92A2.15,2.15,0,0,0,43.41,20.68Z"/><path class="cls-1" d="M31.34,49,25.61,65.6a2.15,2.15,0,0,0,1.33,2.73h0A2.16,2.16,0,0,0,29.68,67l3.53-10.23Z"/></g></svg>