<svg xmlns="http://www.w3.org/2000/svg" viewBox="0 0 70 70"><defs><style>.cls-1{fill:#fff;}</style></defs><g id="Layer_1" data-name="Layer 1"><path class="cls-1" d="M49.94,27.05s-5.3-12.2-9.54-13.26V10.08a1.57,1.57,0,0,0-1.6-1.6V2.12A2.08,2.08,0,0,0,36.68,0H32.44s-2.12,0-2.12,2.65v6.1A1.4,1.4,0,0,0,29,10.34v3.71S22.1,15.11,16.8,37.39a82,82,0,0,0,.26,28.37s0,4.24,8.49,4.24H46.76s5.3,0,5.83-5.3S56.3,45.08,49.94,27.05ZM22,30.24c1.23-4.52,3.95-7.72,6.07-7.14s2.83,4.71,1.6,9.24-3.95,7.71-6.07,7.13S20.74,34.76,22,30.24ZM48.1,61.5s-.49,3.94-5.41,3.94H25.48s-3.94.49-4.43-3.45-2-13.77,0-19.67c0,0,7.15,3.29,10.33-5.41a9.08,9.08,0,0,0,8,1.27c4.42-1.47,4.82-1.76,8.76.7C48.1,38.88,51.05,48.22,48.1,61.5Z"/></g></svg>