<svg xmlns="http://www.w3.org/2000/svg" viewBox="0 0 70 70"><defs><style>.cls-1{fill:#fff;}</style></defs><g id="Layer_1" data-name="Layer 1"><path class="cls-1" d="M49.56,15.31c-8.37-5.83-21-2.11-28.28,8.3S15,47.18,23.34,53s21,2.11,28.28-8.3S57.94,21.14,49.56,15.31ZM45.41,40.88c-6.16,7.84-13.44,8.4-15.68,9,0,0-1.12,0-1.12-.56s1.12-.56,1.12-.56a21,21,0,0,0,14.56-8.4c5.6-7.84,4.48-14.56,4.48-14.56s0-1.12.56-1.12.56,1.12.56,1.12S51.57,33,45.41,40.88Z"/><path class="cls-1" d="M19.27,48.8,3.41,54.88S7.89,68.88,24.69,70l1.68-16.8ZM11,57a.28.28,0,0,1,.13-.38l8.06-3.9a.28.28,0,0,1,.24.5l-8.06,3.91A.28.28,0,0,1,11,57Zm11.37-1.43-3.21,8.36a.28.28,0,0,1-.37.16.29.29,0,0,1-.16-.36l3.22-8.36a.27.27,0,0,1,.36-.16h0A.28.28,0,0,1,22.36,55.56Z"/><path class="cls-1" d="M47.09,0,45.63,14.78l6.5,5.94,14-6.16C63.33,1.12,47.09,0,47.09,0Zm2.32,13.56a.28.28,0,0,1-.17-.36l3-8.46a.28.28,0,1,1,.52.19l-2.95,8.46A.29.29,0,0,1,49.41,13.56Zm11-1.76L52.51,16a.28.28,0,0,1-.38-.12.27.27,0,0,1,.12-.37l7.94-4.15a.28.28,0,0,1,.38.11A.29.29,0,0,1,60.45,11.8Z"/></g></svg>