<svg xmlns="http://www.w3.org/2000/svg" viewBox="0 0 70 70"><defs><style>.cls-1{fill:#fff;}</style></defs><g id="Layer_1" data-name="Layer 1"><polygon class="cls-1" points="43.98 69.63 46.15 28.59 59.79 25.72 52.01 67.83 43.98 69.63"/><polygon class="cls-1" points="44.99 27.37 37.99 19.62 1.31 18.75 12.29 26.59 44.99 27.37"/><polygon class="cls-1" points="46.18 27.39 53.55 19.59 68.73 18.75 60.21 24.54 46.18 27.39"/><path class="cls-1" d="M12.66,27.8l8.59,41.69L42.78,70,45,28.56ZM30.83,51.25A5.19,5.19,0,1,1,36,46.06,5.18,5.18,0,0,1,30.83,51.25Z"/><path class="cls-1" d="M40.2,27.25V1a1,1,0,0,1,1-1h0a1,1,0,0,1,1,1V27.3"/><path class="cls-1" d="M42.55,27.31l7.24-23.5A1,1,0,0,1,51,3.15h0A1,1,0,0,1,51.7,4.4l-7.08,23"/></g></svg>