<svg xmlns="http://www.w3.org/2000/svg" viewBox="0 0 70 70"><defs><style>.cls-1{fill:#fff;}</style></defs><g id="Layer_1" data-name="Layer 1"><path class="cls-1" d="M57.83,0c-3.89,0-3.4,2.52-3.4,2.52V19.64s0,6-5.34,6H19.94s-4.37.5-4.37-6V2s.49-2-3.4-2-3.4,2-3.4,2V58.4S8.28,70,19,70h30.6s11.66,1,11.66-13.6V2.52S61.72,0,57.83,0ZM23,63.3l-.18.19a.6.6,0,0,1-.87,0l-6.66-6.9a.65.65,0,0,1,0-.9l.18-.19a.6.6,0,0,1,.87,0L23,62.4A.65.65,0,0,1,23,63.3Zm5.25-.41h0a.74.74,0,0,1-1,0L15.85,51.15a.79.79,0,0,1,0-1.09h0a.72.72,0,0,1,1,0L28.24,61.81A.78.78,0,0,1,28.24,62.89Z"/></g></svg>