<svg xmlns="http://www.w3.org/2000/svg" viewBox="0 0 70 70"><defs><style>.cls-1{fill:#fff;}</style></defs><g id="Layer_1" data-name="Layer 1"><rect class="cls-1" x="39.04" y="10.2" width="12.55" height="5.88"/><rect class="cls-1" x="41.39" width="7.45" height="9.02"/><path class="cls-1" d="M41.39,1.64h-9L29.24,5.1a2,2,0,0,0,2.35,1.57l2-2.36h7.84Z"/><rect class="cls-1" x="10.02" y="35.69" width="22.74" height="34.12" rx="4.71"/><rect class="cls-1" x="16.69" y="30.2" width="9.8" height="4.31"/><path class="cls-1" d="M56.18,17.25H34.45A4.45,4.45,0,0,0,30,21.69V34.51A6.74,6.74,0,0,1,33,36.67c1.18,1.57,1.18,2.74,1.18,5.09V64.51A8.06,8.06,0,0,1,33.36,68a6.72,6.72,0,0,1-1,1.21,4.45,4.45,0,0,0,2.14.55H56.18a4.44,4.44,0,0,0,4.43-4.43V21.69A4.45,4.45,0,0,0,56.18,17.25Zm.12,44.91a1.38,1.38,0,0,1-2.75,0V25.69a1.38,1.38,0,1,1,2.75,0Z"/></g></svg>