<svg xmlns="http://www.w3.org/2000/svg" viewBox="0 0 70 70"><defs><style>.cls-1{fill:#fff;}</style></defs><g id="Layer_1" data-name="Layer 1"><rect class="cls-1" x="32.97" y="6.94" width="2.67" height="53.94" rx="1.34"/><ellipse class="cls-1" cx="34.3" cy="63.01" rx="3.47" ry="6.94"/><ellipse class="cls-1" cx="34.3" cy="6.94" rx="3.47" ry="6.94"/><path class="cls-1" d="M32.08,41.07,24.3,56.66a1.34,1.34,0,0,1-1.79.59h0a1.33,1.33,0,0,1-.6-1.79L32.08,35.1"/><path class="cls-1" d="M36.57,26.11,44.82,9.6A1.34,1.34,0,0,1,46.61,9h0a1.34,1.34,0,0,1,.6,1.79L36.39,32.45"/><ellipse class="cls-1" cx="21.55" cy="59.16" rx="6.94" ry="3.47" transform="translate(-41.01 52) rotate(-63.45)"/><ellipse class="cls-1" cx="46.61" cy="9" rx="6.94" ry="3.47" transform="translate(17.73 46.68) rotate(-63.45)"/></g></svg>