<svg xmlns="http://www.w3.org/2000/svg" viewBox="0 0 70 70"><defs><style>.cls-1{fill:#fff;}</style></defs><g id="Layer_1" data-name="Layer 1"><polygon class="cls-1" points="19.11 18.56 17.33 21.86 54.36 21.86 52.58 18.56 19.11 18.56"/><path class="cls-1" d="M37.55,23.65l-.07,4.91a1.06,1.06,0,0,1-1.12,1.12h0a1.27,1.27,0,0,1-1.09-1.32l.07-4.9"/><path class="cls-1" d="M37.43,4l-1-.58a.68.68,0,0,1-.28-.83h0a.51.51,0,0,1,.73-.26l1,.58a.67.67,0,0,1,.28.83h0A.51.51,0,0,1,37.43,4Z"/><path class="cls-1" d="M38.14,2.76l-.71-1a.65.65,0,0,1,.06-.86h0a.52.52,0,0,1,.78.13L39,2a.65.65,0,0,1-.07.86h0A.53.53,0,0,1,38.14,2.76Z"/><path class="cls-1" d="M39.23,2,38.92.75A.6.6,0,0,1,39.3,0h0A.59.59,0,0,1,40,.48l.31,1.2a.59.59,0,0,1-.38.74h0A.59.59,0,0,1,39.23,2Z"/><path class="cls-1" d="M40.5.64l.14,1.11a.91.91,0,0,0,.3.68c.3.25,7.66,5.5,7.66,5.5s.63-.6.18-2L41,.25S40.35-.25,40.5.64Z"/><polygon class="cls-1" points="50.8 37.08 21.44 37.08 22.83 52.31 49.65 52.31 50.8 37.08"/><polygon class="cls-1" points="50.9 35.85 51.87 23.09 20.16 23.09 21.33 35.85 50.9 35.85"/><polygon class="cls-1" points="22.95 53.54 24.45 70 48.31 70 49.56 53.54 22.95 53.54"/><path class="cls-1" d="M37.63,17.44,37.79,5c0-.67-.49-.78-1.09-.83s-1.11,0-1.12.64l-.17,12.62Z"/><polygon class="cls-1" points="35.4 18.56 35.36 21.86 37.57 21.86 37.62 18.56 35.4 18.56"/></g></svg>