<svg xmlns="http://www.w3.org/2000/svg" viewBox="0 0 70 70"><defs><style>.cls-1{fill:#fff;}</style></defs><g id="Layer_1" data-name="Layer 1"><path class="cls-1" d="M4.88,65.87,37.71,29.22l8.75-5.47,13.13-17s1.64-2.73,3.28-1.64l1.64,1.09a2.11,2.11,0,0,1,0,2.74C63.42,10.62,49.2,28.67,49.2,28.67l-8.76,5.47-31.18,35a1.92,1.92,0,0,1-2.73.54L4.88,68.61S3.24,67.52,4.88,65.87Z"/><path class="cls-1" d="M53,.23l-.55,2.19L50.84,3l-.55,2.19-1.64.55L48.1,7.89l-1.64.54-.55,2.19-1.64.55-.54,2.19-1.65,1.09,6,4.38L59,4.6Zm3.45,6.29-.08.12a.2.2,0,0,1-.28,0L54.41,5.44a.2.2,0,0,1,0-.28L54.45,5a.21.21,0,0,1,.28,0l1.71,1.25A.2.2,0,0,1,56.48,6.52Zm.65-.82a.24.24,0,0,1-.33,0l-2.88-2.1a.25.25,0,0,1-.06-.34l0-.05a.24.24,0,0,1,.34,0l2.88,2.1a.24.24,0,0,1,.05.33Z"/></g></svg>