<svg xmlns="http://www.w3.org/2000/svg" viewBox="0 0 70 70"><defs><style>.cls-1{fill:#fff;}</style></defs><g id="Layer_1" data-name="Layer 1"><path class="cls-1" d="M49.89,66.91c-.46-3.65-2.89-40.2-4.46-49.59a3.93,3.93,0,0,0-.81-1.93c-1.63-2-6.09-8.09-6.09-8.09H32.05l-6.49,8.09a3.32,3.32,0,0,0-.81,2.32c0,1.54-5.28,49.2-5.28,49.2s-.59,2.86,1.63,2.84c2.43,0,25.95,0,25.95,0S50.29,70.15,49.89,66.91ZM32.45,8.11h5.68l6.08,8.11H26ZM47.86,68.94H21.5c-1.73,0-1.29-2-1.29-2l.13-1.2H49l.13,1.21C49.37,68.94,47.86,68.94,47.86,68.94Z"/><path class="cls-1" d="M37.72,0H32.86l-.81,6.89h6.48ZM33.63,5.57a.14.14,0,0,1-.14.12.12.12,0,0,1-.11-.14L33.87,1a.13.13,0,0,1,.25,0Zm1.78,0a.12.12,0,0,1-.12.13.13.13,0,0,1-.13-.13V1a.13.13,0,0,1,.13-.13.12.12,0,0,1,.12.13ZM37,5.69a.12.12,0,0,1-.14-.11L36.43,1a.13.13,0,0,1,.11-.14.14.14,0,0,1,.14.12l.4,4.6A.14.14,0,0,1,37,5.69Z"/></g></svg>